# xmcd
#
# Track frame offsets:
#	150
#	20372
#	35655
#	55714
#	76345
#	98435
#	121657
#	140597
#	157735
#	178230
#	195150
#
# Disc length: 2822
#
# Revision: 3
# Processed by: cddbd v1.5.1PL0 Copyright (c) Steve Scherf et al.
# Submitted via: CDWizzard Release:4.24
# Normalized: r1:TSWAP
#
DISCID=7a0b040b
DTITLE=Various Artist - Club R&B Vol.1
DYEAR=1900
DGENRE=
TTITLE0=Toni Braxton - Your're makin' me high
TTITLE1=Faith Evans - Kissing you
TTITLE2=TLC - Creep
TTITLE3=Total - Someone like you
TTITLE4=Monica - Before you walk out of my life
TTITLE5=The Tony Rich Project - Nobody knows
TTITLE6=Deborah Cox - Sentimental
TTITLE7=Usher - Think of you
TTITLE8=N II U - There will never be
TTITLE9=Society of Soul - Pushin'
TTITLE10=Donell Jones - Knocks me off my feet
EXTD=
EXTT0=
EXTT1=
EXTT2=
EXTT3=
EXTT4=
EXTT5=
EXTT6=
EXTT7=
EXTT8=
EXTT9=
EXTT10=
PLAYORDER=
